<svg fill="none" xmlns="http://www.w3.org/2000/svg" viewBox="0 0 17 18">
  <circle cx="8.26" cy="9.05" r="8.01" transform="rotate(-.58 8.26 9.05)" fill="#FFC145"/>
  <path d="M10.99 10.8c0 .57-.19 1.06-.57 1.46-.38.4-.87.66-1.47.8v.7c0 .19-.06.35-.2.47a.63.63 0 0 1-.47.21.62.62 0 0 1-.47-.2.65.65 0 0 1-.2-.47v-.63a3.54 3.54 0 0 1-2.07-.84.76.76 0 0 1-.3-.58.6.6 0 0 1 .18-.45.6.6 0 0 1 .45-.2c.15 0 .27.04.38.13.24.18.46.33.67.43.2.1.43.17.68.2l-.02-2.16c-1.5-.26-2.25-1-2.27-2.22a2 2 0 0 1 .61-1.52c.41-.4.95-.66 1.61-.75V4.8a.65.65 0 0 1 .67-.68c.19-.01.34.05.47.19.13.12.2.28.2.47v.42c.63.1 1.15.33 1.57.67.21.17.32.37.32.59a.65.65 0 0 1-.62.65.49.49 0 0 1-.3-.1 2.88 2.88 0 0 0-.96-.47l.02 2.07a3.2 3.2 0 0 1 1.58.74c.33.32.5.8.5 1.44ZM6.63 7.38c0 .25.08.44.24.6.16.15.39.26.7.35l-.03-1.85c-.3.06-.53.17-.68.33a.77.77 0 0 0-.23.57Zm2.3 4.35c.22-.1.4-.21.52-.36a.7.7 0 0 0 .2-.48c0-.2-.06-.38-.18-.53a1.3 1.3 0 0 0-.55-.38l.01 1.75Z" fill="#404040"/>
</svg>
