<svg fill="none" xmlns="http://www.w3.org/2000/svg" viewBox="0 0 31 31">
  <path d="M15.69 17.566a2.315 2.315 0 1 0 0-4.63 2.315 2.315 0 0 0 0 4.63Z" stroke="#C7C7C7" stroke-width="2" stroke-linecap="round" stroke-linejoin="round"/>
  <path d="M21.4 17.566a1.273 1.273 0 0 0 .255 1.404l.046.047a1.545 1.545 0 1 1-2.183 2.183l-.047-.046a1.274 1.274 0 0 0-1.404-.255 1.273 1.273 0 0 0-.772 1.165v.132a1.543 1.543 0 1 1-3.086 0v-.07a1.274 1.274 0 0 0-.833-1.165 1.273 1.273 0 0 0-1.405.255l-.046.046a1.541 1.541 0 0 1-2.184 0 1.543 1.543 0 0 1 0-2.184l.046-.046a1.274 1.274 0 0 0 .255-1.404 1.274 1.274 0 0 0-1.165-.772h-.131a1.543 1.543 0 0 1 0-3.087h.07a1.274 1.274 0 0 0 1.164-.833 1.273 1.273 0 0 0-.254-1.404l-.047-.047a1.543 1.543 0 0 1 1.092-2.636 1.543 1.543 0 0 1 1.092.453l.046.046a1.273 1.273 0 0 0 1.405.254h.062a1.273 1.273 0 0 0 .771-1.165v-.13a1.543 1.543 0 0 1 3.087 0v.069a1.273 1.273 0 0 0 .771 1.165 1.273 1.273 0 0 0 1.405-.255l.046-.046a1.545 1.545 0 1 1 2.184 2.184l-.047.046a1.273 1.273 0 0 0-.254 1.404v.062a1.274 1.274 0 0 0 1.165.772h.131a1.543 1.543 0 1 1 0 3.086h-.07a1.274 1.274 0 0 0-1.164.772v0Z" stroke="#C7C7C7" stroke-width="2" stroke-linecap="round" stroke-linejoin="round"/>
</svg>
